<svg version="1.1" xmlns="http://www.w3.org/2000/svg" width="1362" height="1362" viewBox="0 -150 1362 1362">
  <defs>
    <linearGradient id="gradient" x1="0" y1="0" x2=".75" y2=".75">
      <stop offset="0%" stop-color="#ff9595" />
      <stop offset="100%" stop-color="#ff0000" />
    </linearGradient>
  </defs>
  <path
    d="M0,0 L111,0 L112,610 L124,630 L136,649 L152,675 L156,681 L236,682 L236,806 L101,806 L80,774 L61,745 L42,716 L23,687 L4,658 L0,652 Z "
    fill="url(#gradient)"
    transform="translate(107,104)"
  />
  <path
    d="M0,0 L255,0 L266,51 L285,141 L285,145 L287,145 L288,136 L316,3 L317,0 L573,0 L584,14 L594,27 L604,40 L618,58 L631,75 L645,93 L655,106 L665,119 L675,132 L689,150 L690,152 L690,551 L567,551 L566,191 L555,177 L543,162 L532,148 L521,134 L512,123 L512,121 L402,121 L401,129 L367,283 L339,409 L338,413 L235,413 L221,352 L196,241 L170,126 L170,121 L61,122 L50,136 L39,150 L28,164 L17,178 L7,191 L6,551 L-118,551 L-118,151 L-105,135 L-93,119 L-81,104 L-71,91 L-60,77 L-46,59 L-35,45 L-21,27 L-7,9 Z "
    fill="url(#gradient)"
    transform="translate(554,359)"
  />
</svg>
